<?xml version="1.0" encoding="utf-8"?>
<!-- Generator: Adobe Illustrator 26.1.0, SVG Export Plug-In . SVG Version: 6.00 Build 0)  -->
<svg version="1.1" id="new" xmlns="http://www.w3.org/2000/svg" xmlns:xlink="http://www.w3.org/1999/xlink" x="0px" y="0px"
	 viewBox="0 0 262.18 92.36" style="enable-background:new 0 0 262.18 92.36;" xml:space="preserve">
<style type="text/css">
	.st0{fill:#A30B35;}
</style>
<g>
	<g>
		<path class="st0" d="M65.52,29.16c0-0.81-0.19-1.19-0.81-1.19h-1.1c-0.14,0-0.19-0.05-0.19-0.21v-0.55c0-0.14,0.05-0.19,0.24-0.19
			c0.24,0,1.38,0.07,3.67,0.07c2,0,3.15-0.07,3.44-0.07c0.14,0,0.19,0.05,0.19,0.17v0.6c0,0.14-0.05,0.19-0.19,0.19h-1
			c-0.72,0-1.15,0.43-1.17,0.93c-0.02,0.29-0.07,1.72-0.07,3.1v2.96c0,1.19,0.02,2.89,0.07,3.65c0.07,1.1,0.26,2.2,0.84,2.96
			c0.81,1.1,2.1,1.48,3.24,1.48c1.1,0,2.43-0.43,3.2-1.15c0.91-0.91,1.38-2.29,1.38-4.03v-4.29c0-1.91-0.19-4.01-0.26-4.56
			c-0.07-0.62-0.45-1.05-0.98-1.05h-0.86c-0.14,0-0.19-0.07-0.19-0.17v-0.6c0-0.14,0.05-0.19,0.19-0.19c0.24,0,1.34,0.07,2.91,0.07
			c1.48,0,2.24-0.07,2.43-0.07c0.21,0,0.24,0.07,0.24,0.19v0.55c0,0.14-0.02,0.21-0.14,0.21h-0.86c-0.86,0-0.95,0.67-1,0.93
			c-0.05,0.29-0.05,3.63-0.05,3.94c0,0.33-0.05,4.49-0.14,5.44c-0.14,1.96-0.72,3.44-2,4.58c-1,0.91-2.53,1.48-4.34,1.48
			c-1.15,0-2.53-0.19-3.44-0.57c-1.38-0.57-2.34-1.67-2.82-3.2c-0.33-1.05-0.43-2.62-0.43-5.75V29.16z"/>
		<path class="st0" d="M81.39,38.66c0.1,0,0.14,0.05,0.14,0.19c0.05,0.76,0.24,1.67,0.91,2.72c0.72,1.15,1.96,1.72,3.15,1.72
			c1.29,0,3.1-0.81,3.1-2.79c0-2.19-1-2.91-3.53-3.87c-0.76-0.29-2.34-0.95-3.48-2c-0.81-0.76-1.19-1.96-1.19-3.41
			c0-1.34,0.53-2.43,1.67-3.34c0.95-0.81,2-1.15,3.39-1.15c1.57,0,2.53,0.38,3.01,0.57c0.24,0.1,0.38,0.05,0.5-0.07l0.31-0.31
			c0.1-0.1,0.19-0.14,0.33-0.14c0.14,0,0.19,0.14,0.19,0.38c0,0.38,0.38,3.72,0.38,3.96c0,0.1-0.05,0.14-0.14,0.17l-0.38,0.12
			c-0.1,0.02-0.19,0-0.24-0.14c-0.24-0.67-0.62-1.62-1.48-2.53c-0.62-0.67-1.38-1-2.48-1c-1.91,0-2.67,1.53-2.67,2.41
			c0,0.81,0.1,1.53,0.67,2.15c0.62,0.62,1.96,1.19,2.91,1.48c1.38,0.43,2.53,0.91,3.44,1.86c0.76,0.81,1.19,1.81,1.19,3.41
			c0,2.91-1.91,5.3-5.06,5.3c-1.96,0-3.1-0.43-4.06-1.15c-0.29-0.19-0.43-0.29-0.57-0.29c-0.14,0-0.24,0.19-0.38,0.43
			c-0.14,0.24-0.24,0.29-0.43,0.29s-0.29-0.14-0.29-0.38c0.05-0.29,0.38-4.15,0.43-4.44c0.02-0.14,0.05-0.19,0.14-0.19L81.39,38.66z
			"/>
		<path class="st0" d="M107.39,40.09c0.07,0.07,0.1,0.14,0.05,0.24c-1.43,2.05-3.72,4.01-7.11,4.01c-3.05,0-4.77-0.91-6.25-2.24
			c-1.77-1.57-2.58-4.34-2.58-6.44c0-2.34,0.76-4.58,2.43-6.39c1.29-1.38,3.34-2.53,6.2-2.53c2.2,0,3.96,0.67,4.82,1.15
			c0.33,0.19,0.43,0.19,0.48,0l0.19-0.62c0.05-0.14,0.1-0.14,0.38-0.14s0.33,0.05,0.33,0.38c0,0.43,0.48,4.25,0.57,4.96
			c0.02,0.14,0,0.21-0.1,0.24l-0.45,0.14c-0.12,0.05-0.19-0.05-0.26-0.24c-0.29-0.86-0.86-2.05-1.86-3.1
			c-1.05-1-2.29-1.77-4.15-1.77c-3.82,0-5.39,3.44-5.39,6.87c0,1.48,0.43,4.29,2.19,6.2c1.58,1.67,2.96,1.86,4.1,1.86
			c2.62,0,4.7-1.31,5.7-2.77c0.12-0.17,0.21-0.24,0.29-0.17L107.39,40.09z"/>
		<path d="M115.41,43.84c-1.62-0.64-2.46-1.69-2.84-3.2c-0.29-1.07-0.38-2.67-0.38-5.8v-5.68c0-0.83-0.17-1.22-0.91-1.22h-1.12
			c-0.14,0-0.17-0.05-0.17-0.22v-0.52c0-0.14,0.02-0.19,0.22-0.19c0.24,0,1.41,0.07,3.27,0.07s3.01-0.07,3.27-0.07
			c0.19,0,0.22,0.05,0.22,0.14v0.62c0,0.12-0.02,0.17-0.19,0.17h-1.19c-0.69,0-1.1,0.45-1.14,0.98c-0.02,0.21-0.05,1.88-0.05,3.1
			v1.58c0,1.26,0.1,4.29,0.12,5.06c0.02,1.1,0.22,2.22,0.76,3.03c0.88,1.29,2.41,1.72,3.79,1.72c1.36,0,2.74-0.45,3.58-1.31
			c0.93-1,1.24-2.43,1.24-4.2v-5.11c0-1.81-0.05-3.2-0.12-3.79c-0.07-0.62-0.45-1.05-1.07-1.05h-1.05c-0.14,0-0.17-0.07-0.17-0.19
			v-0.57c0-0.12,0.02-0.17,0.17-0.17c0.24,0,1.34,0.07,2.93,0.07c1.65,0,2.41-0.07,2.63-0.07c0.21,0,0.24,0.1,0.24,0.17v0.53
			c0,0.14-0.02,0.24-0.14,0.24h-0.98c-0.88,0-0.95,0.67-1.03,0.95c-0.05,0.24-0.05,3.63-0.05,3.96c0,0.33-0.05,4.51-0.12,5.44
			c-0.14,1.96-0.67,3.46-2,4.6c-0.95,0.88-2.41,1.43-4.49,1.43C117.39,44.34,116.2,44.17,115.41,43.84z"/>
		<path d="M135.91,42.69c0,0.38,0.21,0.5,0.53,0.5h0.76c0.22,0,0.26,0.07,0.26,0.22v0.38c0,0.17-0.05,0.26-0.19,0.26
			c-0.17,0-0.91-0.07-2.27-0.07c-1.22,0-1.98,0.07-2.15,0.07c-0.14,0-0.19-0.07-0.19-0.26v-0.38c0-0.17,0.07-0.22,0.31-0.22h0.69
			c0.26,0,0.45-0.12,0.48-0.55c0.02-0.62,0.05-1.38,0.05-2v-3.15c0-0.95,0-1.65-0.69-2.15c-0.57-0.43-1.15-0.43-1.74-0.43
			c-0.38,0-1.22,0.17-1.93,0.93c-0.48,0.53-0.55,1.17-0.55,1.62v4.94c0,0.64,0.07,0.79,0.57,0.79h0.6c0.19,0,0.24,0.07,0.24,0.24
			v0.41c0,0.14-0.05,0.21-0.17,0.21c-0.17,0-0.81-0.07-2.08-0.07c-1.22,0-1.98,0.07-2.12,0.07c-0.12,0-0.17-0.07-0.17-0.21v-0.43
			c0-0.14,0.05-0.22,0.24-0.22h0.69c0.31,0,0.48-0.07,0.48-0.48v-5.58c0-0.72-0.38-1.12-0.98-1.41l-0.19-0.1
			c-0.17-0.07-0.19-0.14-0.19-0.21V35.3c0-0.12,0.1-0.19,0.21-0.24l2.05-1.15c0.19-0.1,0.33-0.17,0.43-0.17
			c0.12,0,0.17,0.1,0.19,0.29l0.17,1.46h0.05c0.69-0.86,2.08-1.74,3.27-1.74c0.72,0,1.46,0.14,2.03,0.53
			c0.72,0.48,1.31,1.67,1.31,2.27V42.69z"/>
		<path d="M139.84,37.04c0-0.81-0.14-1.24-1.34-1.43c-0.17-0.02-0.21-0.07-0.21-0.17v-0.21c0-0.07,0.05-0.12,0.17-0.17
			c0.76-0.29,1.67-0.67,2.58-1.17c0.19-0.1,0.31-0.14,0.45-0.14c0.12,0,0.14,0.12,0.12,0.29c-0.05,0.41-0.05,1.91-0.05,3.89v2.6
			c0,0.93,0,1.79,0.02,2.05c0.05,0.45,0.12,0.62,0.38,0.62h1.1c0.19,0,0.24,0.07,0.24,0.22v0.41c0,0.17-0.05,0.24-0.22,0.24
			c-0.19,0-1.29-0.07-2.29-0.07c-1.38,0-2.31,0.07-2.58,0.07c-0.12,0-0.19-0.05-0.19-0.19v-0.48c0-0.14,0.07-0.19,0.24-0.19h1.17
			c0.26,0,0.36-0.1,0.38-0.48c0.02-0.72,0.02-1.46,0.02-2.17V37.04z M138.72,29.71c0-0.62,0.52-1.34,1.5-1.34
			c0.88,0,1.29,0.72,1.29,1.26c0,0.64-0.43,1.41-1.43,1.41C139.53,31.05,138.72,30.5,138.72,29.71z"/>
		<path d="M148.34,41.78h0.07c0.38-0.93,2.05-5.03,2.29-5.97c0.17-0.64,0-1.03-0.43-1.03h-0.48c-0.07,0-0.1-0.12-0.1-0.24v-0.43
			c0-0.14,0.05-0.19,0.14-0.19c0.33,0,0.86,0.07,1.91,0.07c0.93,0,1.5-0.07,1.72-0.07c0.19,0,0.22,0.02,0.22,0.22v0.41
			c0,0.17,0,0.24-0.12,0.24h-0.45c-0.29,0-0.52,0.05-0.74,0.26c-0.36,0.33-1.55,2.96-1.91,3.84c-0.29,0.72-2.05,4.72-2.15,4.89
			c-0.19,0.33-0.31,0.55-0.57,0.55c-0.24,0-0.38-0.21-0.5-0.5l-1.86-4.84c-0.07-0.19-1.05-2.93-1.22-3.32
			c-0.31-0.69-0.55-0.88-0.98-0.88h-0.48c-0.12,0-0.14-0.1-0.14-0.24v-0.43c0-0.17,0.05-0.19,0.26-0.19c0.26,0,0.67,0.07,2,0.07
			c1.26,0,1.88-0.07,2.15-0.07c0.19,0,0.24,0.05,0.24,0.19v0.43c0,0.14-0.02,0.24-0.17,0.24h-0.48c-0.24,0-0.43,0.14-0.43,0.45
			c0,0.43,0.62,2.43,0.76,2.84C147.05,38.54,148.07,41.28,148.34,41.78z"/>
		<path d="M154.8,37.63c-0.05,0.21-0.07,0.6-0.07,1.14c0,2.34,1.48,4.1,3.39,4.1c1.46,0,2.48-0.83,2.89-1.62
			c0.05-0.1,0.14-0.14,0.21-0.12l0.31,0.17c0.07,0.02,0.12,0.1,0,0.36c-0.43,0.95-1.67,2.6-3.79,2.6c-1.36,0-2.86-0.41-3.75-1.69
			c-0.84-1.22-1.05-2.1-1.05-3.77c0-0.93,0.24-2.53,1.5-3.79c1.03-1.05,2.22-1.26,3.41-1.26c2.74,0,3.51,2.58,3.51,3.51
			c0,0.33-0.29,0.38-0.67,0.38H154.8z M158.6,36.92c0.45,0,0.64-0.12,0.64-0.33c0-0.55-0.29-2.12-1.84-2.12
			c-1.05,0-2.05,0.69-2.5,2.46H158.6z"/>
		<path d="M163.32,37.63c0-1.22-0.19-1.46-0.86-1.81l-0.45-0.24c-0.14-0.05-0.19-0.07-0.19-0.17v-0.14c0-0.1,0.05-0.14,0.19-0.21
			l2.36-1.22c0.14-0.07,0.24-0.1,0.33-0.1c0.14,0,0.17,0.14,0.17,0.29l0.12,1.69h0.1c0.72-1.1,1.84-2.08,2.86-2.08
			c0.81,0,1.22,0.5,1.22,1.05c0,0.69-0.57,1.17-1,1.17c-0.26,0-0.5-0.1-0.69-0.19c-0.19-0.12-0.48-0.19-0.79-0.19
			c-0.38,0-1,0.24-1.41,1c-0.14,0.26-0.24,0.69-0.24,0.76v4.96c0,0.74,0.17,0.98,0.67,0.98h1.12c0.14,0,0.17,0.07,0.17,0.22v0.43
			c0,0.14-0.02,0.21-0.12,0.21c-0.14,0-1.24-0.07-2.53-0.07c-1.48,0-2.48,0.07-2.62,0.07c-0.1,0-0.14-0.05-0.14-0.24v-0.41
			c0-0.17,0.05-0.22,0.26-0.22h0.93c0.36,0,0.52-0.14,0.52-0.45c0.02-0.79,0.02-1.62,0.02-2.86V37.63z"/>
		<path d="M169.64,43.57c-0.12-0.07-0.12-0.22-0.14-0.33l-0.41-2.27c-0.02-0.12,0.05-0.17,0.14-0.19l0.31-0.07
			c0.1-0.02,0.17,0.02,0.22,0.14l0.6,1.17c0.48,0.88,0.81,1.48,2.08,1.48c0.84,0,1.88-0.5,1.88-1.62c0-1.07-0.53-1.69-2.31-2.2
			c-1.41-0.41-2.82-1.14-2.82-3.03c0-1.65,1.55-2.91,3.34-2.91c1.15,0,1.77,0.29,2.2,0.5c0.36,0.17,0.41,0.29,0.43,0.43l0.36,1.67
			c0,0.1-0.05,0.17-0.17,0.22l-0.29,0.1c-0.1,0.02-0.14,0-0.22-0.12l-0.81-1.1c-0.29-0.45-0.74-0.93-1.67-0.93
			c-0.91,0-1.84,0.55-1.84,1.57c0,1.38,1.12,1.65,2.29,1.98c1.74,0.5,2.84,1.22,2.86,3.05c-0.02,1.93-1.6,3.15-3.63,3.15
			C170.88,44.27,169.93,43.79,169.64,43.57z"/>
		<path d="M177.99,37.04c0-0.81-0.14-1.24-1.34-1.43c-0.17-0.02-0.21-0.07-0.21-0.17v-0.21c0-0.07,0.05-0.12,0.17-0.17
			c0.76-0.29,1.67-0.67,2.58-1.17c0.19-0.1,0.31-0.14,0.45-0.14c0.12,0,0.14,0.12,0.12,0.29c-0.05,0.41-0.05,1.91-0.05,3.89v2.6
			c0,0.93,0,1.79,0.02,2.05c0.05,0.45,0.12,0.62,0.38,0.62h1.1c0.19,0,0.24,0.07,0.24,0.22v0.41c0,0.17-0.05,0.24-0.22,0.24
			c-0.19,0-1.29-0.07-2.29-0.07c-1.38,0-2.31,0.07-2.58,0.07c-0.12,0-0.19-0.05-0.19-0.19v-0.48c0-0.14,0.07-0.19,0.24-0.19h1.17
			c0.26,0,0.36-0.1,0.38-0.48c0.02-0.72,0.02-1.46,0.02-2.17V37.04z M176.87,29.71c0-0.62,0.52-1.34,1.5-1.34
			c0.88,0,1.29,0.72,1.29,1.26c0,0.64-0.43,1.41-1.43,1.41C177.68,31.05,176.87,30.5,176.87,29.71z"/>
		<path d="M184.36,41c0,1.79,0.81,2.1,1.24,2.1c0.55,0,1.24-0.1,1.57-0.31c0.12-0.07,0.22-0.05,0.29,0.05l0.12,0.22
			c0.07,0.1,0.02,0.19-0.05,0.26c-0.24,0.24-1.22,0.95-2.65,0.95c-1.17,0-2.31-1.12-2.31-2.03c0-0.98,0.07-3.08,0.07-3.41V38.3
			c0-0.43,0.02-2.05,0.05-3.05h-1.46c-0.21,0-0.36-0.1-0.36-0.29c0-0.19,0.14-0.26,0.43-0.43c0.57-0.33,2.41-2.17,2.72-2.98
			c0.07-0.19,0.19-0.24,0.33-0.24c0.19,0,0.24,0.17,0.24,0.36l-0.12,2.34h3.32c0.14,0,0.22,0.12,0.17,0.22l-0.24,0.83
			c-0.02,0.12-0.07,0.19-0.21,0.19h-3.08c-0.05,1.1-0.07,2.27-0.07,3.36V41z"/>
		<path d="M188.47,49.25c0-0.5,0.53-0.93,1.1-0.93c0.45,0,0.88,0.21,1.1,0.26c0.17,0.02,0.36,0,0.5-0.14
			c0.36-0.43,1.57-3.15,1.91-4.08c-0.12-0.6-2.65-8.06-2.84-8.57c-0.29-0.6-0.5-1-1.12-1h-0.62c-0.17,0-0.19-0.07-0.19-0.21V34.1
			c0-0.1,0.02-0.17,0.19-0.17c0.21,0,0.79,0.07,2.19,0.07c1.22,0,1.96-0.07,2.22-0.07c0.19,0,0.22,0.07,0.22,0.17v0.5
			c0,0.12-0.02,0.19-0.14,0.19h-0.45c-0.26,0-0.36,0.17-0.31,0.53c0.07,0.53,1.69,5.8,1.96,6.32h0.1c0.24-0.38,2.31-5.34,2.46-5.94
			c0.14-0.6-0.05-0.91-0.41-0.91h-0.38c-0.14,0-0.17-0.07-0.17-0.19v-0.48c0-0.12,0.02-0.19,0.14-0.19c0.31,0,0.81,0.07,1.96,0.07
			c0.64,0,1.19-0.07,1.46-0.07c0.14,0,0.14,0.1,0.14,0.19v0.45c0,0.14,0,0.21-0.12,0.21h-0.38c-0.26,0-0.6,0.12-0.84,0.43
			c-0.53,0.64-2.1,4.29-3.75,8.04c-1.17,2.65-2.1,4.87-2.53,5.65c-0.33,0.62-0.76,1.55-2.03,1.55
			C188.92,50.47,188.47,49.97,188.47,49.25z"/>
		<path d="M204.45,42.62c-1.1-1.31-1.31-2.19-1.31-3.89c0-1.22,0.64-2.74,2.05-3.84c1.24-0.95,2.41-1.15,3.2-1.15
			c1.31,0,2.62,0.67,3.34,1.38c1.07,1.1,1.62,2.34,1.62,3.89c0,2.6-2.34,5.25-5.27,5.25C206.93,44.27,205.45,43.81,204.45,42.62z
			 M211.35,38.78c0-2.65-1.93-4.32-3.15-4.32c-0.64,0-1.26,0.14-1.84,0.76c-0.93,0.95-1.26,1.93-1.26,3.75
			c0,1.34,0.14,2.24,0.91,3.34c0.55,0.79,1.24,1.24,2.36,1.24C210.18,43.55,211.35,41.33,211.35,38.78z"/>
		<path d="M214.02,35.15c-0.12,0-0.17-0.05-0.12-0.26l0.1-0.72c0.02-0.14,0.1-0.17,0.29-0.17h1.38v-0.43c0-2.36,0.67-3.91,1.6-4.96
			c1.26-1.38,2.58-1.88,3.91-1.88c1.12,0,2.17,0.43,2.17,1.34c0,0.57-0.62,1.03-1,1.03c-0.24,0-0.48-0.05-0.67-0.14
			c-0.21-0.12-0.48-0.43-0.57-0.55c-0.31-0.38-0.64-0.55-1.1-0.55c-0.62,0-1.26,0.17-1.79,0.83c-0.88,1.12-0.83,3.2-0.83,4.87v0.45
			h2.89c0.17,0,0.19,0.14,0.17,0.24l-0.12,0.79c-0.02,0.1-0.12,0.12-0.31,0.12h-2.62v2.15c0,2.82,0,5.01,0.02,5.27
			c0.05,0.41,0.12,0.62,0.62,0.62h1.36c0.21,0,0.26,0.05,0.26,0.19v0.38c0,0.19-0.05,0.29-0.17,0.29c-0.14,0-1.03-0.07-2.86-0.07
			c-1.31,0-2.53,0.07-2.72,0.07c-0.14,0-0.19-0.05-0.19-0.17v-0.53c0-0.12,0.05-0.17,0.24-0.17h1.15c0.45,0,0.55-0.29,0.57-0.83
			v-7.21H214.02z"/>
		<path d="M66.67,66.45c-0.29-0.21-0.43-0.29-0.55-0.29c-0.14,0-0.24,0.17-0.38,0.41c-0.14,0.26-0.26,0.29-0.43,0.29
			c-0.14,0-0.26-0.12-0.21-0.38c0.1-0.6,0.33-3.63,0.41-4.32c0.02-0.14,0.07-0.14,0.17-0.14l0.36,0.02c0.1,0,0.14,0.05,0.14,0.19
			c0.02,0.76,0.07,1.55,0.86,2.77c0.72,1.12,2.03,1.77,3.34,1.77c1.43,0,3.24-0.88,3.24-3.03c0-2.46-1.77-3.36-3.67-4.03
			c-0.74-0.26-2.46-0.86-3.48-1.93c-0.79-0.79-1.19-1.91-1.19-3.48c0-1.19,0.74-2.36,1.48-3.05c0.86-0.81,2.05-1.14,3.34-1.14
			c1.36,0,2.41,0.41,2.82,0.6c0.21,0.12,0.33,0.1,0.45-0.02l0.31-0.29c0.12-0.1,0.19-0.14,0.31-0.14c0.12,0,0.19,0.19,0.19,0.41
			c0,0.83,0.31,3.27,0.33,3.79c0,0.12-0.02,0.17-0.12,0.19l-0.29,0.07c-0.07,0.02-0.12,0-0.14-0.07c-0.19-0.69-0.5-1.62-1.48-2.65
			c-0.64-0.69-1.48-1.03-2.6-1.03c-2.12,0-2.89,1.58-2.89,2.79c0,0.67,0.14,1.46,0.74,2.08c0.69,0.69,2.03,1.22,2.72,1.43
			c1.65,0.53,2.98,0.93,3.84,1.98c0.62,0.74,1.05,1.67,1.05,3.25c0,2.82-1.72,5.23-4.87,5.23C68.79,67.69,67.62,67.19,66.67,66.45z"
			/>
		<path d="M77.71,65.97c-1.1-1.31-1.31-2.2-1.31-3.89c0-1.22,0.64-2.74,2.05-3.84c1.24-0.95,2.41-1.15,3.2-1.15
			c1.31,0,2.62,0.67,3.34,1.38c1.07,1.1,1.62,2.34,1.62,3.89c0,2.6-2.34,5.25-5.27,5.25C80.19,67.62,78.72,67.16,77.71,65.97z
			 M84.61,62.13c0-2.65-1.93-4.32-3.15-4.32c-0.64,0-1.26,0.14-1.84,0.76c-0.93,0.95-1.26,1.93-1.26,3.75
			c0,1.34,0.14,2.24,0.91,3.34c0.55,0.79,1.24,1.24,2.36,1.24C83.44,66.9,84.61,64.68,84.61,62.13z"/>
		<path d="M96.06,62.49c0,1.15,0,2.31,0.05,2.82c0.07,0.74,0.33,0.83,0.62,0.83c0.14,0,0.5,0,0.79-0.07c0.19-0.05,0.26,0,0.29,0.1
			l0.07,0.31c0.02,0.14-0.02,0.19-0.12,0.22l-2.51,0.83c-0.14,0.05-0.29,0.1-0.48,0.1c-0.1,0-0.19-0.05-0.21-0.29l-0.19-1.38h-0.05
			c-0.67,0.93-2.05,1.67-3.24,1.67c-0.67,0-1.46-0.07-2.24-1.1c-0.98-1.26-0.93-2.05-0.93-4.68v-2.79
			c-0.02-0.67-0.36-0.84-0.91-0.91c-0.41-0.02-0.53-0.05-0.53-0.17v-0.43c0-0.14,0.05-0.19,0.26-0.19h2.12
			c0.14,0,0.24-0.02,0.33-0.05c0.1,0,0.19-0.02,0.26-0.02c0.17,0,0.29,0.12,0.26,0.29c-0.02,0.21-0.1,1.34-0.1,2.74v1.72
			c0,0.95-0.24,2.48,0.53,3.58c0.6,0.86,1.26,0.91,1.91,0.91c0.64,0,1.6-0.62,2.05-1.19c0.1-0.12,0.24-0.43,0.24-0.64v-5.7
			c-0.05-0.67-0.43-0.79-1.03-0.84c-0.41,0-0.52-0.05-0.52-0.17v-0.41c0-0.19,0.05-0.21,0.29-0.21h2.22c0.17,0,0.29-0.02,0.41-0.05
			c0.12,0,0.21-0.02,0.29-0.02c0.14,0,0.24,0.12,0.21,0.24c-0.02,0.21-0.14,0.83-0.14,3.17V62.49z"/>
		<path d="M100.83,64.35c0,1.79,0.81,2.1,1.24,2.1c0.55,0,1.24-0.1,1.57-0.31c0.12-0.07,0.22-0.05,0.29,0.05l0.12,0.21
			c0.07,0.1,0.02,0.19-0.05,0.26c-0.24,0.24-1.22,0.95-2.65,0.95c-1.17,0-2.31-1.12-2.31-2.03c0-0.98,0.07-3.08,0.07-3.41v-0.52
			c0-0.43,0.02-2.05,0.05-3.05h-1.46c-0.21,0-0.36-0.1-0.36-0.29c0-0.19,0.14-0.26,0.43-0.43c0.57-0.33,2.41-2.17,2.72-2.98
			c0.07-0.19,0.19-0.24,0.33-0.24c0.19,0,0.24,0.17,0.24,0.36l-0.12,2.34h3.32c0.14,0,0.22,0.12,0.17,0.21l-0.24,0.83
			c-0.02,0.12-0.07,0.19-0.21,0.19h-3.08c-0.05,1.1-0.07,2.27-0.07,3.36V64.35z"/>
		<path d="M106.25,54.33c0-1.46-0.29-1.72-1.15-2l-0.41-0.14c-0.14-0.05-0.17-0.07-0.17-0.14v-0.21c0-0.1,0.07-0.12,0.29-0.24
			l2.48-1.31c0.19-0.1,0.36-0.19,0.55-0.19c0.14,0,0.24,0.19,0.19,0.6c-0.05,0.41-0.07,5.25-0.07,6.44v1.53h0.12
			c0.84-1,2.22-1.55,3.27-1.55c1,0,1.69,0.31,2.36,0.95c1.07,1,1.03,2.22,1.03,3.51v1.36c0,1.34,0.05,2.82,0.05,3.27
			c0,0.29,0.38,0.36,0.88,0.36h0.41c0.19,0,0.26,0.05,0.26,0.21v0.36c0,0.19-0.05,0.29-0.19,0.29c-0.17,0-0.93-0.07-2.29-0.07
			c-1.17,0-2.03,0.07-2.24,0.07c-0.17,0-0.22-0.07-0.22-0.26v-0.41c0-0.12,0.02-0.19,0.17-0.19h0.55c0.41,0,0.88-0.05,0.91-0.45
			c0.02-0.33,0-1.6,0-2.36V61.8c0-1.34-0.1-2.29-0.79-2.93c-0.48-0.45-0.98-0.67-1.58-0.67c-0.69,0-1.55,0.24-2.22,1
			c-0.21,0.26-0.48,0.74-0.48,1.17v5.2c0,0.76,0.07,0.98,0.53,0.98h0.72c0.17,0,0.26,0.05,0.26,0.19v0.41
			c0,0.17-0.05,0.26-0.19,0.26c-0.19,0-1.17-0.07-2.27-0.07c-1.19,0-2.1,0.07-2.31,0.07c-0.1,0-0.17-0.07-0.17-0.24v-0.43
			c0-0.17,0.1-0.19,0.36-0.19h0.5c0.38,0,0.74-0.1,0.79-0.38c0.07-0.45,0.07-3.08,0.07-4.63V54.33z"/>
		<path d="M118.11,60.98c-0.05,0.21-0.07,0.6-0.07,1.15c0,2.34,1.48,4.1,3.39,4.1c1.46,0,2.48-0.84,2.89-1.62
			c0.05-0.1,0.14-0.14,0.21-0.12l0.31,0.17c0.07,0.02,0.12,0.1,0,0.36c-0.43,0.95-1.67,2.6-3.79,2.6c-1.36,0-2.86-0.41-3.75-1.69
			c-0.84-1.22-1.05-2.1-1.05-3.77c0-0.93,0.24-2.53,1.5-3.79c1.03-1.05,2.22-1.26,3.41-1.26c2.74,0,3.51,2.58,3.51,3.51
			c0,0.33-0.29,0.38-0.67,0.38H118.11z M121.9,60.27c0.45,0,0.64-0.12,0.64-0.33c0-0.55-0.29-2.12-1.84-2.12
			c-1.05,0-2.05,0.69-2.5,2.46H121.9z"/>
		<path d="M126.91,60.98c0-1.22-0.19-1.46-0.86-1.81l-0.45-0.24c-0.14-0.05-0.19-0.07-0.19-0.17v-0.14c0-0.1,0.05-0.14,0.19-0.22
			l2.36-1.22c0.14-0.07,0.24-0.1,0.33-0.1c0.14,0,0.17,0.14,0.17,0.29l0.12,1.69h0.1c0.72-1.1,1.84-2.08,2.86-2.08
			c0.81,0,1.22,0.5,1.22,1.05c0,0.69-0.57,1.17-1,1.17c-0.26,0-0.5-0.1-0.69-0.19c-0.19-0.12-0.48-0.19-0.79-0.19
			c-0.38,0-1,0.24-1.41,1c-0.14,0.26-0.24,0.69-0.24,0.76v4.96c0,0.74,0.17,0.98,0.67,0.98h1.12c0.14,0,0.17,0.07,0.17,0.21v0.43
			c0,0.14-0.02,0.22-0.12,0.22c-0.14,0-1.24-0.07-2.53-0.07c-1.48,0-2.48,0.07-2.62,0.07c-0.1,0-0.14-0.05-0.14-0.24v-0.41
			c0-0.17,0.05-0.21,0.26-0.21h0.93c0.36,0,0.53-0.14,0.53-0.45c0.02-0.79,0.02-1.62,0.02-2.86V60.98z"/>
		<path d="M143.01,66.04c0,0.38,0.21,0.5,0.53,0.5h0.76c0.22,0,0.26,0.07,0.26,0.21v0.38c0,0.17-0.05,0.26-0.19,0.26
			c-0.17,0-0.91-0.07-2.27-0.07c-1.22,0-1.98,0.07-2.15,0.07c-0.14,0-0.19-0.07-0.19-0.26v-0.38c0-0.17,0.07-0.21,0.31-0.21h0.69
			c0.26,0,0.45-0.12,0.48-0.55c0.02-0.62,0.05-1.38,0.05-2v-3.15c0-0.95,0-1.65-0.69-2.15c-0.57-0.43-1.15-0.43-1.74-0.43
			c-0.38,0-1.22,0.17-1.93,0.93c-0.48,0.53-0.55,1.17-0.55,1.62v4.94c0,0.64,0.07,0.79,0.57,0.79h0.6c0.19,0,0.24,0.07,0.24,0.24
			v0.41c0,0.14-0.05,0.22-0.17,0.22c-0.17,0-0.81-0.07-2.08-0.07c-1.22,0-1.98,0.07-2.12,0.07c-0.12,0-0.17-0.07-0.17-0.22v-0.43
			c0-0.14,0.05-0.21,0.24-0.21h0.69c0.31,0,0.48-0.07,0.48-0.48v-5.58c0-0.72-0.38-1.12-0.98-1.41l-0.19-0.1
			c-0.17-0.07-0.19-0.14-0.19-0.22v-0.12c0-0.12,0.1-0.19,0.21-0.24l2.05-1.14c0.19-0.1,0.33-0.17,0.43-0.17
			c0.12,0,0.17,0.1,0.19,0.29l0.17,1.46h0.05c0.69-0.86,2.08-1.74,3.27-1.74c0.72,0,1.46,0.14,2.03,0.53
			c0.72,0.48,1.31,1.67,1.31,2.27V66.04z"/>
		<path d="M152.68,65.49c-1.72-1.62-2.55-4.39-2.55-6.68c0-2.22,0.72-4.51,2.43-6.32c1.22-1.29,3.36-2.41,5.96-2.41
			c2.17,0,3.96,0.81,4.82,1.31c0.31,0.19,0.43,0.17,0.48,0l0.19-0.69c0.05-0.14,0.1-0.14,0.31-0.14c0.21,0,0.26,0.05,0.26,0.38
			c0,0.45,0.48,3.96,0.6,4.63c0.02,0.12,0,0.21-0.1,0.24l-0.36,0.1c-0.12,0.02-0.17,0-0.24-0.19c-0.33-0.79-0.86-1.93-1.86-2.96
			c-1-1.03-2.27-1.84-4.15-1.84c-4.27,0-5.99,3.79-5.97,7.28c0,1.38,0.43,4.08,2.29,6.13c1.62,1.81,2.98,2,4.58,2
			c2.7,0,4.8-1.48,5.89-3.03c0.07-0.12,0.12-0.14,0.19-0.07l0.31,0.24c0.07,0.05,0.12,0.1,0.05,0.21c-1.43,2.08-3.75,4.01-7.11,4.01
			C155.9,67.69,154.11,66.81,152.68,65.49z"/>
		<path d="M174.29,66.28c0.38,0,0.72-0.19,0.84-0.36c0.1-0.12,0.14-0.17,0.24-0.1l0.24,0.19c0.07,0.07,0.12,0.19-0.02,0.43
			c-0.19,0.36-0.64,1.17-1.86,1.17c-0.86,0-1.48-0.62-1.69-1.6h-0.05c-0.5,0.6-1.29,1.1-2.36,1.46c-0.45,0.14-0.88,0.14-1.41,0.14
			c-0.57,0-1.43-0.48-1.43-1.98c0-1.1,0.5-2.05,2.39-2.89c1.07-0.48,2.31-1.05,2.7-1.38v-1.53c-0.05-0.41-0.07-1.03-0.33-1.34
			c-0.26-0.31-0.74-0.52-1.43-0.52c-0.48,0-1.22,0.19-1.55,0.5c-0.33,0.31-0.12,0.67-0.12,1.1c0,0.84-0.29,1.36-1.26,1.36
			c-0.38,0-0.57-0.22-0.57-0.76c0-0.76,0.67-1.67,1.65-2.24c1-0.6,1.84-0.83,2.91-0.83c1.12,0,1.58,0.33,1.91,0.64
			c0.5,0.5,0.53,1.05,0.53,1.69v5.06C173.58,65.85,173.86,66.28,174.29,66.28z M171.84,62.08c-0.86,0.64-3.2,1.12-3.2,3.1
			c0,0.88,0.53,1.31,1.24,1.31c0.69,0,1.96-0.83,1.96-1.48V62.08z"/>
		<path d="M179.59,60.22c0,1.24,0,4.84,0.02,5.58c0.02,0.41,0.12,0.74,0.62,0.74h1.07c0.21,0,0.26,0.07,0.26,0.21v0.41
			c0,0.14-0.05,0.24-0.14,0.24c-0.17,0-1.22-0.07-2.7-0.07c-1.53,0-2.48,0.07-2.7,0.07c-0.12,0-0.17-0.1-0.17-0.24v-0.41
			c0-0.17,0.05-0.21,0.31-0.21h1.14c0.26,0,0.5-0.17,0.52-0.6c0.02-0.74,0.02-4.84,0.02-6.23v-1.5c0-1.69-0.02-3.87-0.07-4.49
			c-0.05-0.81-0.43-1.19-1.19-1.43l-0.48-0.17c-0.12-0.05-0.14-0.07-0.14-0.12v-0.19c0-0.07,0.07-0.12,0.21-0.17
			c0.83-0.38,1.91-0.81,2.79-1.38c0.21-0.14,0.36-0.19,0.5-0.19c0.17,0,0.21,0.12,0.19,0.43c-0.02,1.31-0.1,6.28-0.1,7.59V60.22z"/>
		<path d="M184.15,60.39c0-0.81-0.14-1.24-1.34-1.43c-0.17-0.02-0.21-0.07-0.21-0.17v-0.22c0-0.07,0.05-0.12,0.17-0.17
			c0.76-0.29,1.67-0.67,2.58-1.17c0.19-0.1,0.31-0.14,0.45-0.14c0.12,0,0.14,0.12,0.12,0.29c-0.05,0.41-0.05,1.91-0.05,3.89v2.6
			c0,0.93,0,1.79,0.02,2.05c0.05,0.45,0.12,0.62,0.38,0.62h1.1c0.19,0,0.24,0.07,0.24,0.21v0.41c0,0.17-0.05,0.24-0.22,0.24
			c-0.19,0-1.29-0.07-2.29-0.07c-1.38,0-2.31,0.07-2.58,0.07c-0.12,0-0.19-0.05-0.19-0.19v-0.48c0-0.14,0.07-0.19,0.24-0.19h1.17
			c0.26,0,0.36-0.1,0.38-0.48c0.02-0.72,0.02-1.46,0.02-2.17V60.39z M183.02,53.06c0-0.62,0.52-1.34,1.5-1.34
			c0.88,0,1.29,0.72,1.29,1.26c0,0.64-0.43,1.41-1.43,1.41C183.84,54.4,183.02,53.85,183.02,53.06z"/>
		<path d="M188.61,58.5c-0.12,0-0.17-0.05-0.12-0.26l0.1-0.72c0.02-0.14,0.1-0.17,0.29-0.17h1.38v-0.43c0-2.36,0.67-3.91,1.6-4.96
			c1.26-1.38,2.58-1.88,3.91-1.88c1.12,0,2.17,0.43,2.17,1.34c0,0.57-0.62,1.03-1,1.03c-0.24,0-0.48-0.05-0.67-0.14
			c-0.21-0.12-0.48-0.43-0.57-0.55c-0.31-0.38-0.64-0.55-1.1-0.55c-0.62,0-1.26,0.17-1.79,0.83c-0.88,1.12-0.83,3.2-0.83,4.87v0.45
			h2.89c0.17,0,0.19,0.14,0.17,0.24l-0.12,0.79c-0.02,0.1-0.12,0.12-0.31,0.12h-2.62v2.15c0,2.82,0,5.01,0.02,5.27
			c0.05,0.41,0.12,0.62,0.62,0.62h1.36c0.21,0,0.26,0.05,0.26,0.19v0.38c0,0.19-0.05,0.29-0.17,0.29c-0.14,0-1.03-0.07-2.86-0.07
			c-1.31,0-2.53,0.07-2.72,0.07c-0.14,0-0.19-0.05-0.19-0.17v-0.53c0-0.12,0.05-0.17,0.24-0.17h1.15c0.45,0,0.55-0.29,0.57-0.83
			V58.5H188.61z"/>
		<path d="M195.98,65.97c-1.1-1.31-1.31-2.2-1.31-3.89c0-1.22,0.64-2.74,2.05-3.84c1.24-0.95,2.41-1.15,3.2-1.15
			c1.31,0,2.62,0.67,3.34,1.38c1.07,1.1,1.62,2.34,1.62,3.89c0,2.6-2.34,5.25-5.27,5.25C198.46,67.62,196.98,67.16,195.98,65.97z
			 M202.88,62.13c0-2.65-1.93-4.32-3.15-4.32c-0.64,0-1.26,0.14-1.84,0.76c-0.93,0.95-1.26,1.93-1.26,3.75
			c0,1.34,0.14,2.24,0.91,3.34c0.55,0.79,1.24,1.24,2.36,1.24C201.71,66.9,202.88,64.68,202.88,62.13z"/>
		<path d="M206.57,60.98c0-1.22-0.19-1.46-0.86-1.81l-0.45-0.24c-0.14-0.05-0.19-0.07-0.19-0.17v-0.14c0-0.1,0.05-0.14,0.19-0.22
			l2.36-1.22c0.14-0.07,0.24-0.1,0.33-0.1c0.14,0,0.17,0.14,0.17,0.29l0.12,1.69h0.1c0.72-1.1,1.84-2.08,2.86-2.08
			c0.81,0,1.22,0.5,1.22,1.05c0,0.69-0.57,1.17-1,1.17c-0.26,0-0.5-0.1-0.69-0.19c-0.19-0.12-0.48-0.19-0.79-0.19
			c-0.38,0-1,0.24-1.41,1c-0.14,0.26-0.24,0.69-0.24,0.76v4.96c0,0.74,0.17,0.98,0.67,0.98h1.12c0.14,0,0.17,0.07,0.17,0.21v0.43
			c0,0.14-0.02,0.22-0.12,0.22c-0.14,0-1.24-0.07-2.53-0.07c-1.48,0-2.48,0.07-2.62,0.07c-0.1,0-0.14-0.05-0.14-0.24v-0.41
			c0-0.17,0.05-0.21,0.26-0.21h0.93c0.36,0,0.53-0.14,0.53-0.45c0.02-0.79,0.02-1.62,0.02-2.86V60.98z"/>
		<path d="M222.46,66.04c0,0.38,0.21,0.5,0.53,0.5h0.76c0.22,0,0.26,0.07,0.26,0.21v0.38c0,0.17-0.05,0.26-0.19,0.26
			c-0.17,0-0.91-0.07-2.27-0.07c-1.22,0-1.98,0.07-2.15,0.07c-0.14,0-0.19-0.07-0.19-0.26v-0.38c0-0.17,0.07-0.21,0.31-0.21h0.69
			c0.26,0,0.45-0.12,0.48-0.55c0.02-0.62,0.05-1.38,0.05-2v-3.15c0-0.95,0-1.65-0.69-2.15c-0.57-0.43-1.15-0.43-1.74-0.43
			c-0.38,0-1.22,0.17-1.93,0.93c-0.48,0.53-0.55,1.17-0.55,1.62v4.94c0,0.64,0.07,0.79,0.57,0.79h0.6c0.19,0,0.24,0.07,0.24,0.24
			v0.41c0,0.14-0.05,0.22-0.17,0.22c-0.17,0-0.81-0.07-2.08-0.07c-1.22,0-1.98,0.07-2.12,0.07c-0.12,0-0.17-0.07-0.17-0.22v-0.43
			c0-0.14,0.05-0.21,0.24-0.21h0.69c0.31,0,0.48-0.07,0.48-0.48v-5.58c0-0.72-0.38-1.12-0.98-1.41l-0.19-0.1
			c-0.17-0.07-0.19-0.14-0.19-0.22v-0.12c0-0.12,0.1-0.19,0.21-0.24l2.05-1.14c0.19-0.1,0.33-0.17,0.43-0.17
			c0.12,0,0.17,0.1,0.19,0.29l0.17,1.46h0.05c0.69-0.86,2.08-1.74,3.27-1.74c0.72,0,1.46,0.14,2.03,0.53
			c0.72,0.48,1.31,1.67,1.31,2.27V66.04z"/>
		<path d="M226.16,60.39c0-0.81-0.14-1.24-1.34-1.43c-0.17-0.02-0.21-0.07-0.21-0.17v-0.22c0-0.07,0.05-0.12,0.17-0.17
			c0.76-0.29,1.67-0.67,2.58-1.17c0.19-0.1,0.31-0.14,0.45-0.14c0.12,0,0.14,0.12,0.12,0.29c-0.05,0.41-0.05,1.91-0.05,3.89v2.6
			c0,0.93,0,1.79,0.02,2.05c0.05,0.45,0.12,0.62,0.38,0.62h1.1c0.19,0,0.24,0.07,0.24,0.21v0.41c0,0.17-0.05,0.24-0.22,0.24
			c-0.19,0-1.29-0.07-2.29-0.07c-1.38,0-2.31,0.07-2.58,0.07c-0.12,0-0.19-0.05-0.19-0.19v-0.48c0-0.14,0.07-0.19,0.24-0.19h1.17
			c0.26,0,0.36-0.1,0.38-0.48c0.02-0.72,0.02-1.46,0.02-2.17V60.39z M225.04,53.06c0-0.62,0.52-1.34,1.5-1.34
			c0.88,0,1.29,0.72,1.29,1.26c0,0.64-0.43,1.41-1.43,1.41C225.85,54.4,225.04,53.85,225.04,53.06z"/>
		<path d="M237.71,66.28c0.38,0,0.72-0.19,0.84-0.36c0.1-0.12,0.14-0.17,0.24-0.1l0.24,0.19c0.07,0.07,0.12,0.19-0.02,0.43
			c-0.19,0.36-0.64,1.17-1.86,1.17c-0.86,0-1.48-0.62-1.69-1.6h-0.05c-0.5,0.6-1.29,1.1-2.36,1.46c-0.45,0.14-0.88,0.14-1.41,0.14
			c-0.57,0-1.43-0.48-1.43-1.98c0-1.1,0.5-2.05,2.39-2.89c1.07-0.48,2.31-1.05,2.7-1.38v-1.53c-0.05-0.41-0.07-1.03-0.33-1.34
			c-0.26-0.31-0.74-0.52-1.43-0.52c-0.48,0-1.22,0.19-1.55,0.5c-0.33,0.31-0.12,0.67-0.12,1.1c0,0.84-0.29,1.36-1.26,1.36
			c-0.38,0-0.57-0.22-0.57-0.76c0-0.76,0.67-1.67,1.65-2.24c1-0.6,1.84-0.83,2.91-0.83c1.12,0,1.58,0.33,1.91,0.64
			c0.5,0.5,0.52,1.05,0.52,1.69v5.06C236.99,65.85,237.28,66.28,237.71,66.28z M235.25,62.08c-0.86,0.64-3.2,1.12-3.2,3.1
			c0,0.88,0.53,1.31,1.24,1.31c0.69,0,1.96-0.83,1.96-1.48V62.08z"/>
	</g>
	<g>
		<path d="M34.38,48.04l-1.85,0c-0.22,0-0.41-0.01-0.46-0.26C32,47.47,32.3,47.4,32.3,47.4c-0.03,0.02-0.1,0.16-0.04,0.31
			c0.05,0.13,0.16,0.11,0.35,0.11l2.07,0C34.68,48.02,34.38,48.04,34.38,48.04"/>
		<path d="M33.88,56.08h-0.9c-0.15,0-0.29-0.03-0.35-0.2c-0.07-0.2,0.16-0.25,0.16-0.25c-0.02,0.01-0.05,0.08,0,0.18
			c0.04,0.1,0.12,0.09,0.25,0.09l1.05,0C34.09,56.08,33.88,56.08,33.88,56.08"/>
		<path d="M34.65,48.23l-2.5,0c-0.24,0-0.45-0.2-0.45-0.51c0-0.29,0.22-0.51,0.45-0.51l2.5,0c0.23,0,0.45,0.22,0.45,0.5
			C35.1,48,34.88,48.23,34.65,48.23 M34.04,48.86l-1.28,0c-0.22,0-0.42-0.1-0.54-0.26l2.36,0C34.46,48.75,34.26,48.85,34.04,48.86
			 M33.15,49.25c0.27,0.01,0.63,0.01,1-0.04l-0.26,5.85l-0.63,0L33.15,49.25z M32.64,49.21c0,0,0.09,0.01,0.24,0.02l0.22,5.83h-0.17
			L32.64,49.21z M34.52,55.86c0,0.24-0.2,0.44-0.44,0.44l-1.35,0c-0.24,0-0.44-0.2-0.44-0.44c0-0.24,0.2-0.44,0.44-0.44l1.35,0
			C34.33,55.42,34.52,55.61,34.52,55.86 M33.7,59.04c0,0.16-0.12,0.29-0.29,0.29c-0.16,0-0.29-0.13-0.29-0.29l-0.12-2.39h0.15
			l0.09,2.31c0,0.17,0.08,0.21,0.08,0.21l-0.05-2.52l0.53,0L33.7,59.04z M31.49,46.02c0-0.32,0.13-0.58,0.26-0.85
			c0.17-0.34,0.35-0.71,0.26-1.18c0.17,0.07,0.39,0.18,0.58,0.37c-0.12,0.15-0.25,0.29-0.33,0.38c-0.51,0.61-0.71,1.33-0.16,2.13
			h-0.08C32.02,46.87,31.49,46.67,31.49,46.02 M33.29,43.35c0.45,0.37,1.02,1.06,1.02,1.86c0,0.72-0.62,1.54-0.76,1.65
			c-0.12-0.16-0.27-0.46-0.27-0.8c0-0.59,0.29-0.94,0.29-0.94s-0.43,0.28-0.49,0.83c-0.03,0.27,0.03,0.55,0.21,0.92h-0.26
			c-0.07-0.11-0.57-0.74-0.15-1.45c0.07-0.12,0.38-0.57,0.42-0.66c0.05-0.11,0.04-0.22,0.04-0.22c-0.05,0.08-0.14,0.19-0.14,0.19
			c-0.09,0.1-0.4,0.42-0.49,0.54c-0.6,0.73-0.02,1.54,0.01,1.6h-0.24c-0.27-0.31-0.36-0.6-0.33-1.05
			C32.19,44.8,33.41,44.68,33.29,43.35 M34.96,44.2c-0.12,0.76,0.1,1.38,0.14,1.47c0.21,0.77-0.37,1.12-0.49,1.19l-0.02-0.01
			l-0.58,0c0.36-0.47,0.65-1.1,0.65-1.65c0-0.17-0.02-0.33-0.05-0.48l-0.05-0.16C34.71,44.39,34.85,44.28,34.96,44.2 M35.06,46.99
			c0.31-0.28,0.59-0.76,0.39-1.43l-0.01-0.02c0-0.01-0.31-0.76-0.04-1.6l0.09-0.28l-0.29,0.04c-0.04,0-0.38,0.06-0.79,0.47
			c-0.34-0.69-1-1.21-1.68-1.55c0.25,0.79,0.28,1.09,0.08,1.43c-0.46-0.43-1.03-0.52-1.06-0.52l-0.33-0.05l0.13,0.3
			c0.21,0.49,0.04,0.82-0.15,1.21c-0.14,0.29-0.3,0.61-0.3,1.02c0,0.53,0.27,0.87,0.52,1.05c-0.18,0.16-0.29,0.4-0.29,0.66
			c0,0.33,0.17,0.62,0.43,0.77c0.08,0.26,0.27,0.47,0.5,0.6l0.3,5.98c-0.36,0.08-0.63,0.4-0.63,0.78c0,0.41,0.31,0.75,0.71,0.79
			l0.12,2.4c0,0.35,0.29,0.64,0.64,0.64c0.37,0,0.64-0.29,0.64-0.63l0.11-2.41c0.4-0.04,0.72-0.39,0.71-0.79
			c0-0.39-0.28-0.71-0.64-0.78l0.27-5.97c0.25-0.12,0.44-0.35,0.53-0.62c0.26-0.15,0.43-0.45,0.43-0.76
			C35.46,47.43,35.3,47.15,35.06,46.99"/>
		<path d="M49.32,48.04l-1.85,0c-0.22,0-0.4-0.01-0.46-0.26c-0.07-0.32,0.23-0.39,0.23-0.39c-0.03,0.02-0.1,0.16-0.04,0.31
			c0.05,0.13,0.16,0.11,0.35,0.11l2.07,0C49.61,48.02,49.32,48.04,49.32,48.04"/>
		<path d="M48.82,56.08h-0.9c-0.15,0-0.29-0.03-0.35-0.2c-0.07-0.2,0.16-0.25,0.16-0.25c-0.02,0.01-0.05,0.08,0,0.18
			c0.04,0.1,0.12,0.09,0.25,0.09l1.05,0C49.03,56.08,48.82,56.08,48.82,56.08"/>
		<path d="M49.59,48.23l-2.5,0c-0.24,0-0.45-0.2-0.45-0.51c0-0.29,0.22-0.51,0.45-0.51l2.5,0c0.23,0,0.45,0.22,0.45,0.5
			C50.04,48,49.82,48.23,49.59,48.23 M48.98,48.86l-1.28,0c-0.22,0-0.41-0.1-0.54-0.26l2.36,0C49.39,48.75,49.2,48.85,48.98,48.86
			 M48.08,49.25c0.27,0.01,0.63,0.01,0.99-0.04l-0.26,5.85l-0.63,0L48.08,49.25z M47.58,49.21c0,0,0.09,0.01,0.24,0.02l0.22,5.83
			h-0.17L47.58,49.21z M49.46,55.86c0,0.24-0.2,0.44-0.44,0.44l-1.35,0c-0.24,0-0.44-0.2-0.44-0.44c0-0.24,0.2-0.44,0.44-0.44
			l1.35,0C49.26,55.42,49.46,55.61,49.46,55.86 M48.64,59.04c0,0.16-0.12,0.29-0.29,0.29c-0.16,0-0.29-0.13-0.29-0.29l-0.12-2.39
			h0.15l0.09,2.31c0,0.17,0.08,0.21,0.08,0.21l-0.05-2.52l0.53,0L48.64,59.04z M46.42,46.02c0-0.32,0.13-0.58,0.26-0.85
			c0.17-0.34,0.35-0.71,0.26-1.18c0.17,0.07,0.39,0.18,0.58,0.37c-0.12,0.15-0.25,0.29-0.33,0.38c-0.51,0.61-0.7,1.33-0.16,2.13
			h-0.08C46.96,46.87,46.42,46.67,46.42,46.02 M48.22,43.35c0.46,0.37,1.02,1.06,1.02,1.86c0,0.72-0.61,1.54-0.76,1.65
			c-0.12-0.16-0.27-0.46-0.27-0.8c0-0.59,0.29-0.94,0.29-0.94s-0.43,0.28-0.49,0.83c-0.03,0.27,0.03,0.55,0.21,0.92h-0.26
			c-0.07-0.11-0.57-0.74-0.15-1.45c0.07-0.12,0.38-0.57,0.42-0.66c0.05-0.11,0.04-0.22,0.04-0.22c-0.05,0.08-0.14,0.19-0.14,0.19
			c-0.09,0.1-0.4,0.42-0.49,0.54c-0.6,0.73-0.02,1.54,0.01,1.6H47.4c-0.27-0.31-0.36-0.6-0.33-1.05
			C47.13,44.8,48.34,44.68,48.22,43.35 M49.9,44.2c-0.12,0.76,0.1,1.38,0.14,1.47c0.21,0.77-0.36,1.12-0.49,1.19l-0.02-0.01l-0.58,0
			c0.36-0.47,0.65-1.1,0.65-1.65c0-0.17-0.02-0.33-0.05-0.48l-0.05-0.16C49.65,44.39,49.79,44.28,49.9,44.2 M50,46.99
			c0.31-0.28,0.59-0.76,0.4-1.43l-0.01-0.02c0-0.01-0.31-0.76-0.04-1.6l0.09-0.28l-0.29,0.04c-0.04,0-0.38,0.06-0.79,0.47
			c-0.34-0.69-1-1.21-1.68-1.55c0.25,0.79,0.28,1.09,0.08,1.43c-0.47-0.43-1.03-0.52-1.06-0.52l-0.33-0.05l0.13,0.3
			c0.21,0.49,0.04,0.82-0.15,1.21c-0.14,0.29-0.3,0.61-0.3,1.02c0,0.53,0.27,0.87,0.52,1.05c-0.18,0.16-0.29,0.4-0.29,0.66
			c0,0.33,0.17,0.62,0.43,0.77c0.08,0.26,0.27,0.47,0.5,0.6l0.3,5.98c-0.36,0.08-0.63,0.4-0.63,0.78c0,0.41,0.31,0.75,0.71,0.79
			l0.12,2.4c0,0.35,0.29,0.64,0.64,0.64c0.37,0,0.64-0.29,0.64-0.63l0.11-2.41c0.4-0.04,0.72-0.39,0.71-0.79
			c0-0.39-0.28-0.71-0.64-0.78l0.27-5.97c0.25-0.12,0.45-0.35,0.53-0.62c0.26-0.15,0.43-0.45,0.43-0.76
			C50.39,47.43,50.24,47.15,50,46.99"/>
		<path d="M42.65,49.4l-3.3,0c-0.43,0-0.78-0.35-0.78-0.78c0-0.43,0.35-0.78,0.78-0.78l3.3-0.01c0.06,0,0.12,0.01,0.17,0.02l0,0.01
			c0,0,0,0,0.01,0c0.34,0.08,0.6,0.39,0.6,0.76C43.42,49.05,43.08,49.4,42.65,49.4 M41.98,50.24l-2.01,0c-0.32,0-0.6-0.19-0.72-0.47
			c0.03,0,0.06,0,0.09,0l3.3,0c0.04,0,0.07,0,0.11,0C42.63,50.04,42.33,50.24,41.98,50.24 M41.74,58.9l-0.96,0l-0.1-8.28l1.31,0
			c0.05,0,0.09,0,0.14-0.01L41.74,58.9z M42.63,59.91c0,0.36-0.29,0.65-0.64,0.65l-1.92,0c-0.36,0-0.65-0.29-0.65-0.64
			c0-0.36,0.29-0.64,0.64-0.64l1.92,0C42.33,59.27,42.63,59.56,42.63,59.91 M41.49,64.31c0,0.27-0.22,0.49-0.49,0.49
			c-0.27,0-0.49-0.22-0.49-0.5l-0.15-3.36l0.3,0l0.13,3.29c0,0.24,0.11,0.29,0.11,0.29l-0.06-3.58l0.81,0L41.49,64.31z M40.24,50.62
			l0.35,8.28h-0.33l-0.38-8.28c0.03,0,0.06,0,0.1,0L40.24,50.62z M38.27,46.28c0-0.45,0.18-0.82,0.37-1.21
			c0.25-0.51,0.51-1.03,0.33-1.72c0.27,0.09,0.67,0.27,1,0.61c-0.08,0.1-0.17,0.2-0.27,0.3c-0.07,0.08-0.15,0.16-0.23,0.25
			c-0.11,0.11-1.32,1.39-0.3,2.97c-0.04,0.01-0.08,0.01-0.13,0.03C38.94,47.47,38.27,47.16,38.27,46.28 M40.7,43.44
			c0.11-0.32,0.09-0.68,0.05-0.97c0.57,0.44,1.56,1.37,1.56,2.56c0.01,1.2-0.77,2.14-1.07,2.44l-0.05,0
			c-0.16-0.22-0.37-0.64-0.37-1.11c0-0.82,0.4-1.31,0.4-1.31s-0.59,0.39-0.68,1.14c-0.04,0.37,0.04,0.76,0.29,1.27h-0.36
			c-0.11-0.17-0.78-1.03-0.21-1.99c0.1-0.16,0.53-0.79,0.59-0.92c0.07-0.16,0.06-0.3,0.06-0.3c-0.07,0.12-0.2,0.26-0.2,0.26
			c-0.12,0.14-0.55,0.58-0.69,0.74c-0.81,0.99-0.05,2.09,0.01,2.22l-0.4,0c-1.13-1.48,0.06-2.65,0.11-2.7l0.01-0.01
			c0.08-0.09,0.15-0.17,0.22-0.24C40.27,44.2,40.52,43.93,40.7,43.44 M43.26,43.62c-0.23,1.11,0.11,2.04,0.16,2.16
			c0.29,1.02-0.4,1.54-0.66,1.7c-0.04-0.01-0.08-0.01-0.12-0.01h-0.9c0.39-0.47,0.95-1.34,0.94-2.45c0-0.28-0.05-0.55-0.13-0.81
			C42.82,43.9,43.08,43.72,43.26,43.62 M43.2,47.61c0.38-0.32,0.87-0.95,0.58-1.95l-0.01-0.02c-0.01-0.01-0.44-1.08-0.06-2.27
			l0.09-0.28l-0.29,0.04c-0.02,0-0.52,0.07-1.11,0.69c-0.57-1.19-1.79-1.92-1.86-1.96l-0.45-0.27l0.18,0.49
			c0.07,0.2,0.23,0.8,0.08,1.22c-0.04,0.13-0.1,0.24-0.15,0.33c-0.64-0.63-1.45-0.75-1.48-0.75l-0.33-0.04l0.13,0.3
			c0.31,0.7,0.07,1.18-0.2,1.74c-0.2,0.41-0.41,0.84-0.41,1.38c0,0.74,0.39,1.2,0.74,1.44c-0.27,0.21-0.45,0.54-0.45,0.91
			c0,0.45,0.26,0.84,0.64,1.03c0.07,0.38,0.32,0.7,0.66,0.86l0.39,8.4c-0.48,0.08-0.84,0.5-0.84,1c0,0.53,0.41,0.97,0.93,1.01
			l0.15,3.38c0,0.48,0.39,0.86,0.87,0.86c0.48,0,0.87-0.39,0.86-0.86l0.16-3.38c0.54-0.02,0.98-0.47,0.98-1.02
			c0-0.52-0.39-0.94-0.89-1.01l0.39-8.4c0.36-0.16,0.63-0.49,0.68-0.86c0.37-0.19,0.62-0.58,0.61-1.02
			C43.8,48.19,43.56,47.81,43.2,47.61"/>
		<path d="M39.17,48.64c-0.1-0.24,0.03-0.46,0.07-0.5c0,0-0.47,0.08-0.35,0.6c0.09,0.4,0.36,0.44,0.71,0.44l2.99,0
			c0,0,0.35,0.03,0.48-0.3l-3.34,0.01C39.43,48.88,39.25,48.85,39.17,48.64"/>
		<path d="M39.91,59.94c-0.07-0.19,0.02-0.37,0.05-0.39c0,0-0.37,0.06-0.28,0.47c0.07,0.31,0.29,0.35,0.56,0.35l1.63,0
			c0,0,0.27,0.03,0.38-0.23l-1.91,0C40.11,60.13,39.98,60.11,39.91,59.94"/>
		<path d="M54.91,51.4c-2.18,5.31-6.34,12.57-13.85,17.15c-7.53-4.56-11.71-11.82-13.9-17.12c-2.02-4.88-2.75-9.03-2.94-10.25
			c0.9-0.51,1.79-0.75,2.81-0.75h0.01c0.71,0,1.71,0.13,2.29,0.3l0.35,0.1c0.29,0.08,0.6,0.17,0.9,0.26v0
			c1.11,0.32,2.37,0.64,3.32,0.64h0.01c1.06,0,2.72-0.14,4.59-0.8c0.53-0.19,1.16-0.39,1.84-0.48l0.61-0.05c0.01,0,0.02,0,0.04,0
			l0.95,0.08c0.58,0.1,1.12,0.27,1.58,0.43c1.86,0.65,3.51,0.79,4.58,0.79h0.01c0.64,0,1.48-0.15,2.63-0.46l0,0
			c0.48-0.13,0.96-0.27,1.43-0.41l0.52-0.15c0.57-0.17,1.62-0.3,2.33-0.31H55c1.01,0,1.94,0.25,2.83,0.73
			C57.64,42.32,56.92,46.49,54.91,51.4 M34.26,36.57c-0.23,0.58-0.4,1.19-0.48,1.83c-0.85-0.04-1.98-0.33-2.99-0.61l-1.25-0.36
			c-0.63-0.18-1.69-0.32-2.46-0.32h-0.01c-1.11,0-2.27,0.27-3.25,0.73c-0.04-0.61-0.08-1.31-0.1-2.06L34.26,36.57z M23.75,33.28
			l10.95,2.4c-0.1,0.17-0.19,0.34-0.27,0.52l-10.72-1.43C23.71,34.29,23.73,33.79,23.75,33.28 M24.12,29.28l11.37,5.27
			c-0.21,0.25-0.42,0.51-0.6,0.79L23.8,32.23C23.87,31.29,23.97,30.3,24.12,29.28 M24.42,27.58c0.44,0.09,1.31,0.26,2.43,0.38
			l9.24,5.98c-0.12,0.11-0.25,0.23-0.36,0.35l-11.42-6.11C24.35,27.97,24.38,27.78,24.42,27.58 M29.34,28.09
			c1.19,0,2.31-0.1,3.35-0.3l4.66,5.22c-0.35,0.2-0.69,0.44-1,0.7l-7.7-5.63C28.88,28.09,29.11,28.09,29.34,28.09 M35.29,27.09
			l3.09,5.43c-0.21,0.08-0.41,0.17-0.61,0.27l-3.93-5.25C34.34,27.4,34.83,27.25,35.29,27.09 M39.38,25.12l0.94,6.95
			c-0.52,0.05-1.02,0.16-1.51,0.31l-2.59-5.64C37.51,26.22,38.57,25.63,39.38,25.12 M41,23.93c0.23,0.19,0.47,0.38,0.7,0.55
			l-0.42,7.57c-0.09,0-0.17-0.01-0.26-0.01h-0.01c-0.09,0-0.18,0.01-0.27,0.01l-0.42-7.58C40.62,24.25,40.85,24.06,41,23.93
			 M42.61,25.12c1.1,0.72,2.2,1.24,3.14,1.62l-2.59,5.63c-0.48-0.15-0.97-0.25-1.49-0.3L42.61,25.12z M46.68,27.09
			c0.66,0.23,1.18,0.37,1.46,0.43l-3.93,5.26c-0.2-0.1-0.41-0.19-0.62-0.27L46.68,27.09z M49.31,27.76c1.15,0.2,2.35,0.31,3.57,0.31
			c0.15,0,0.29-0.01,0.43-0.01l-7.7,5.64c-0.31-0.25-0.64-0.48-0.99-0.68L49.31,27.76z M55.1,27.95c1.16-0.12,2.04-0.3,2.47-0.41
			c0.04,0.2,0.08,0.4,0.11,0.6l-11.44,6.13c-0.12-0.12-0.24-0.24-0.36-0.35L55.1,27.95z M57.88,29.25c0.16,1.04,0.27,2.05,0.33,3.01
			l-11.08,3.11c-0.19-0.3-0.41-0.58-0.64-0.84L57.88,29.25z M58.3,34.78l-10.71,1.43c-0.08-0.17-0.17-0.34-0.27-0.5l10.94-2.4
			C58.29,33.81,58.3,34.31,58.3,34.78 M50.69,38.26l-0.08-0.3c-0.66,0.18-1.61,0.41-2.36,0.43c-0.08-0.63-0.25-1.24-0.48-1.81
			l10.53-0.79c-0.02,0.73-0.05,1.39-0.09,1.99c-0.96-0.45-2.09-0.7-3.16-0.7h-0.01c-0.68,0-1.8,0.12-2.5,0.33l-0.48,0.14
			c-0.47,0.14-0.96,0.29-1.45,0.42L50.69,38.26z M41.04,37.09l0,0.05L41.04,37.09c-0.25,0-0.5,0.02-0.74,0.05l0,0
			c-0.73,0.09-1.41,0.31-1.98,0.51c-1.53,0.54-2.91,0.71-3.91,0.75c0.46-3.29,3.24-5.74,6.6-5.74h0.01c3.32,0,6.13,2.48,6.6,5.72
			c-1-0.04-2.36-0.21-3.86-0.74c-0.45-0.16-1.05-0.35-1.68-0.46l0,0.02l0-0.02C41.71,37.12,41.37,37.09,41.04,37.09 M33.94,39.04
			L33.94,39.04c0.75,0,1.79-0.08,2.97-0.34c0.51-0.12,1.05-0.26,1.62-0.46c0.53-0.19,1.17-0.39,1.85-0.48l0.66-0.04l0.94,0.08
			c0.59,0.1,1.15,0.29,1.58,0.43c0.69,0.24,1.35,0.41,1.96,0.53c1.04,0.2,1.94,0.26,2.61,0.26h0.01c0.64,0,1.46-0.14,2.63-0.46
			c0.49-0.13,0.99-0.28,1.47-0.42L52.71,38c0.57-0.17,1.61-0.3,2.33-0.3h0.01c1.07,0,2.19,0.28,3.11,0.75
			c-0.02,0.25-0.04,0.48-0.07,0.69c-0.96-0.48-2.02-0.73-3.09-0.73h-0.01c-0.69,0-1.81,0.12-2.5,0.33l-0.51,0.15
			c-0.46,0.14-0.94,0.28-1.42,0.41c-0.7,0.19-1.72,0.42-2.49,0.44c-1.01,0-2.59-0.13-4.37-0.75c-0.22-0.08-0.48-0.16-0.75-0.24
			c-0.29-0.09-0.61-0.16-0.93-0.22c-0.36-0.06-0.7-0.09-1.03-0.09c-0.25,0-0.49,0.02-0.73,0.05l0,0c-0.39,0.05-0.76,0.13-1.1,0.23
			c-0.31,0.09-0.6,0.18-0.87,0.28c-1.78,0.63-3.37,0.76-4.38,0.76h-0.01c-0.86,0-2.08-0.31-3.15-0.62l-1.25-0.36
			c-0.63-0.18-1.69-0.32-2.46-0.32h-0.01c-1.07,0-2.13,0.25-3.08,0.73c-0.02-0.2-0.04-0.43-0.07-0.66c0.94-0.5,2.09-0.78,3.2-0.78
			h0.01c0.71,0,1.72,0.13,2.29,0.3l1.25,0.36l0.09-0.3l-0.09,0.3C31.79,38.73,33,39.04,33.94,39.04 M50.64,40.96l-0.08-0.3
			c-1.1,0.3-1.88,0.43-2.47,0.44h-0.01c-1.02,0-2.6-0.13-4.37-0.75c-0.48-0.17-1.06-0.35-1.68-0.46c-0.63-0.11-1.18-0.12-1.77-0.04
			c-0.74,0.09-1.41,0.31-1.97,0.51c-1.78,0.63-3.36,0.76-4.38,0.76h-0.01c-0.87,0-2.08-0.31-3.15-0.62l-0.09,0.3l0.08-0.3
			c-0.31-0.09-0.61-0.17-0.9-0.26l-0.35-0.1c-0.63-0.18-1.69-0.32-2.46-0.32h-0.01c-1.05,0-1.98,0.23-2.91,0.71
			c-0.02-0.16-0.06-0.38-0.09-0.66c0.92-0.5,1.95-0.78,3-0.78h0.01c0.71,0,1.71,0.13,2.29,0.3l1.25,0.36l0.09-0.3l-0.09,0.3
			c1.17,0.33,2.39,0.64,3.32,0.64h0.01c1.06,0,2.72-0.14,4.58-0.8c0.54-0.19,1.17-0.39,1.84-0.48l0.61-0.05c0.01,0,0.02,0,0.04,0
			l0.95,0.08c0.58,0.1,1.12,0.28,1.58,0.43c1.86,0.65,3.51,0.79,4.57,0.79h0.02c0.64,0,1.45-0.14,2.63-0.46
			c0.48-0.13,0.97-0.27,1.43-0.41l0.51-0.15c0.56-0.17,1.61-0.3,2.33-0.3H55c1.05,0,2.09,0.27,3.01,0.77
			c-0.03,0.27-0.06,0.49-0.09,0.64C57,40,56.04,39.77,55,39.77h-0.01c-0.68,0-1.8,0.12-2.5,0.33l-0.52,0.15
			c-0.46,0.14-0.93,0.28-1.41,0.41L50.64,40.96z M58.89,33.17l-0.06-1.08c-0.07-1-0.19-2.05-0.36-3.11l-0.12-0.73
			c-0.07-0.39-0.14-0.77-0.23-1.16l-0.07-0.33l-0.32,0.09c-0.01,0-0.53,0.15-1.4,0.29l-2.11,0.24c-0.42,0.03-0.86,0.04-1.33,0.05
			c-1.23,0-2.43-0.11-3.59-0.32l-0.74-0.15c-0.01,0-0.03,0-0.04-0.01c-0.02,0-0.61-0.13-1.51-0.44l-0.98-0.37
			c-0.98-0.39-2.15-0.96-3.31-1.74l-0.97-0.7c-0.18-0.14-0.36-0.29-0.54-0.45l-0.22-0.19l-0.21,0.2c-0.01,0.01-0.18,0.17-0.51,0.43
			l-0.99,0.71c-0.81,0.53-1.93,1.18-3.33,1.74l-0.98,0.37c-0.48,0.16-0.97,0.32-1.5,0.45c-0.01,0-0.03,0.01-0.04,0.01l-0.85,0.19
			c-1.01,0.19-2.09,0.28-3.24,0.29c-0.56,0-1.1-0.02-1.6-0.06l-2.12-0.25c-0.84-0.13-1.35-0.26-1.36-0.27l-0.31-0.08l-0.07,0.32
			c-0.07,0.31-0.12,0.62-0.18,0.93l-0.16,0.94c-0.16,1.05-0.28,2.07-0.35,3.05l-0.06,1.09c-0.02,0.53-0.03,1.04-0.04,1.53l0.01,1.05
			c0.06,2.96,0.41,5,0.44,5.16c0.03,0.25,0.66,5.02,3.03,10.76c2.23,5.39,6.49,12.77,14.16,17.43l0.33,0.2l0.33-0.2
			c7.66-4.67,11.9-12.07,14.11-17.46c2.35-5.75,2.97-10.52,3-10.77c0.03-0.16,0.37-2.18,0.43-5.11l0.01-1.05
			C58.92,34.2,58.91,33.7,58.89,33.17"/>
	</g>
</g>
</svg>
